<svg xmlns="http://www.w3.org/2000/svg" version="1.1" xmlns:xlink="http://www.w3.org/1999/xlink" xmlns:svgjs="http://svgjs.com/svgjs" width="1440" height="560" preserveAspectRatio="none" viewBox="0 0 1440 560"><g mask="url(&quot;#SvgjsMask1017&quot;)" fill="none"><rect width="1440" height="560" x="0" y="0" fill="rgba(6, 19, 32, 1)"></rect><path d="M0,648.869C120.043,647.153,224.707,569.566,315.728,491.282C398.201,420.349,463.222,329.733,492.777,225.044C519.932,128.857,497.416,28.979,473.651,-68.101C451.855,-157.137,405.065,-232.459,361.091,-312.887C304.461,-416.462,285.35,-557.738,178.502,-607.922C71.885,-657.998,-56.46,-606.976,-164.334,-559.669C-263.645,-516.117,-329.486,-428.665,-405.842,-351.664C-488.22,-268.59,-599.76,-203.652,-629.557,-90.517C-660.31,26.249,-622.419,151.685,-566.611,258.763C-512.498,362.589,-418.018,433.997,-321.583,500.392C-222.324,568.731,-120.497,650.591,0,648.869" fill="#050f1a"></path><path d="M1440 1187.039C1558.795 1185.1779999999999 1683.47 1155.1509999999998 1770.505 1074.2759999999998 1852.9850000000001 997.634 1840.57 866.554 1892.44 766.6220000000001 1948.295 659.013 2089.983 588.336 2085.625 467.173 2081.304 347.034 1960.25 267.207 1871.558 186.053 1791.433 112.73700000000002 1705.483 38.153999999999996 1598.211 21.18399999999997 1496.121 5.0330000000000155 1405.011 75.14100000000002 1303.827 96.238 1190.911 119.78199999999998 1051.241 70.93400000000003 969.467 152.281 888.254 233.07 930.982 371.08799999999997 913.697 484.329 896.222 598.81 832.525 711.08 867.31 821.539 903.4 936.1410000000001 1001.4929999999999 1020.095 1102.774 1084.734 1203.841 1149.2359999999999 1320.119 1188.917 1440 1187.039" fill="#071726"></path></g><defs><mask id="SvgjsMask1017"><rect width="1440" height="560" fill="#ffffff"></rect></mask></defs></svg>